<?xml version="1.0" encoding="iso-8859-1"?>
<!-- Uploaded to: SVG Repo, www.svgrepo.com, Generator: SVG Repo Mixer Tools -->
<svg height="50px" width="50px" version="1.1" id="Capa_1" xmlns="http://www.w3.org/2000/svg" xmlns:xlink="http://www.w3.org/1999/xlink" 
	 viewBox="0 0 445.527 445.527" xml:space="preserve">
<g>
	<path style="fill:#BB844C;" d="M107.083,377.976h231.361v-60.49H107.083V377.976z M114.527,328.353c0-2.485,2.015-4.5,4.5-4.5
		h207.477c2.485,0,4.5,2.015,4.5,4.5v39.5c0,2.485-2.015,4.5-4.5,4.5H119.027c-2.485,0-4.5-2.015-4.5-4.5V328.353z"/>
	<circle style="fill:#BB844C;" cx="180.798" cy="204.328" r="2.566"/>
	<path style="fill:#CCB683;" d="M187.86,51.352h-50.372c-8.232,0-14.93,6.698-14.93,14.93v212.268c0,8.232,6.697,14.93,14.93,14.93
		h50.372c8.232,0,14.93-6.698,14.93-14.93V66.282C202.79,58.05,196.092,51.352,187.86,51.352z M180.798,215.894
		c-6.378,0-11.567-5.188-11.567-11.566c0-6.378,5.189-11.567,11.567-11.567c6.379,0,11.568,5.189,11.568,11.567
		C192.367,210.706,187.177,215.894,180.798,215.894z"/>
	<path style="fill:#BB844C;" d="M107.083,35.727v272.759h111.181V35.727H107.083z M211.79,278.551
		c0,13.195-10.734,23.93-23.93,23.93h-50.372c-13.195,0-23.93-10.735-23.93-23.93V66.282c0-13.195,10.734-23.93,23.93-23.93h50.372
		c13.195,0,23.93,10.735,23.93,23.93V278.551z"/>
	<path style="fill:#CCB683;" d="M322.003,332.853H123.527v30.5h198.477V332.853z M166.663,359.669
		c-6.378,0-11.567-5.188-11.567-11.566c0-6.379,5.189-11.568,11.567-11.568c6.379,0,11.568,5.189,11.568,11.568
		C178.231,354.48,173.041,359.669,166.663,359.669z M278.869,359.669c-6.38,0-11.57-5.188-11.57-11.566
		c0-6.379,5.19-11.568,11.57-11.568c6.378,0,11.566,5.189,11.566,11.568C290.435,354.48,285.247,359.669,278.869,359.669z"/>
	<path style="fill:#BB844C;" d="M278.869,345.535c-1.417,0-2.57,1.152-2.57,2.568c0,1.415,1.153,2.566,2.57,2.566
		c1.415,0,2.566-1.151,2.566-2.566C281.435,346.687,280.284,345.535,278.869,345.535z"/>
	<polygon style="fill:#CCB683;" points="343.481,13.363 344.757,9 100.77,9 102.047,13.363 	"/>
	<circle style="fill:#BB844C;" cx="166.663" cy="348.102" r="2.567"/>
	<path style="fill:#BB844C;" d="M117.141,413.703h-12.415c-3.011,0-5.461,2.448-5.461,5.458c0,2.113,3.269,5.102,4.937,6.16
		c1.3,0.826,2.088,2.259,2.088,3.799v7.407h9.286v-7.407c0-1.54,0.788-2.973,2.088-3.799c1.981-1.28,4.935-4.132,4.935-6.16
		C122.598,416.151,120.15,413.703,117.141,413.703z"/>
	<path style="fill:#BB844C;" d="M338.445,35.727H227.264v272.759h111.181V35.727z M331.97,278.551
		c0,13.195-10.735,23.93-23.931,23.93h-50.371c-13.195,0-23.93-10.735-23.93-23.93V66.282c0-13.195,10.734-23.93,23.93-23.93h50.371
		c13.195,0,23.931,10.735,23.931,23.93V278.551z"/>
	<polygon style="fill:#BB844C;" points="104.68,22.363 105.958,26.727 339.571,26.727 340.847,22.363 	"/>
	<polygon style="fill:#CCB683;" points="104.68,391.339 340.847,391.339 339.571,386.976 105.958,386.976 	"/>
	<polygon style="fill:#BB844C;" points="343.481,400.339 102.047,400.339 100.77,404.703 344.757,404.703 	"/>
	<path style="fill:#BB844C;" d="M340.804,413.703h-12.415c-3.01,0-5.459,2.448-5.459,5.458c0,2.113,3.269,5.102,4.936,6.16
		c1.3,0.826,2.088,2.259,2.088,3.799v7.407h9.286v-7.407c0-1.54,0.787-2.973,2.088-3.799c1.981-1.28,4.934-4.132,4.934-6.16
		C346.262,416.151,343.814,413.703,340.804,413.703z"/>
	<path style="fill:#BB844C;" d="M264.732,201.761c-1.416,0-2.568,1.151-2.568,2.567c0,1.415,1.152,2.566,2.568,2.566
		c1.415,0,2.566-1.151,2.566-2.566C267.298,202.913,266.147,201.761,264.732,201.761z"/>
	<path style="fill:#CCB683;" d="M308.04,51.352h-50.371c-8.232,0-14.93,6.698-14.93,14.93v212.268c0,8.232,6.697,14.93,14.93,14.93
		h50.371c8.232,0,14.931-6.698,14.931-14.93V66.282C322.97,58.05,316.272,51.352,308.04,51.352z M264.732,215.894
		c-6.379,0-11.568-5.188-11.568-11.566c0-6.378,5.189-11.567,11.568-11.567c6.378,0,11.566,5.189,11.566,11.567
		C276.298,210.706,271.11,215.894,264.732,215.894z"/>
	<path style="fill:#7C5F53;" d="M119.027,372.353h207.477c2.485,0,4.5-2.015,4.5-4.5v-39.5c0-2.485-2.015-4.5-4.5-4.5H119.027
		c-2.485,0-4.5,2.015-4.5,4.5v39.5C114.527,370.338,116.541,372.353,119.027,372.353z M123.527,332.853h198.477v30.5H123.527
		V332.853z"/>
	<path style="fill:#7C5F53;" d="M166.663,336.535c-6.378,0-11.567,5.189-11.567,11.568c0,6.377,5.189,11.566,11.567,11.566
		c6.379,0,11.568-5.188,11.568-11.566C178.231,341.725,173.041,336.535,166.663,336.535z M166.663,350.669
		c-1.416,0-2.567-1.151-2.567-2.566c0-1.416,1.151-2.568,2.567-2.568c1.416,0,2.568,1.152,2.568,2.568
		C169.231,349.518,168.079,350.669,166.663,350.669z"/>
	<path style="fill:#7C5F53;" d="M278.869,336.535c-6.38,0-11.57,5.189-11.57,11.568c0,6.377,5.19,11.566,11.57,11.566
		c6.378,0,11.566-5.188,11.566-11.566C290.435,341.725,285.247,336.535,278.869,336.535z M278.869,350.669
		c-1.417,0-2.57-1.151-2.57-2.566c0-1.416,1.153-2.568,2.57-2.568c1.415,0,2.566,1.152,2.566,2.568
		C281.435,349.518,280.284,350.669,278.869,350.669z"/>
	<path style="fill:#7C5F53;" d="M354.364,411.902c0.85-1.134,1.115-2.602,0.718-3.962l-7.637-26.103V31.867l7.637-26.103
		c0.397-1.36,0.132-2.828-0.718-3.962C353.513,0.667,352.179,0,350.762,0H94.765c-1.417,0-2.751,0.667-3.602,1.802
		c-0.85,1.134-1.115,2.602-0.718,3.962l7.638,26.103v349.969l-7.638,26.103c-0.397,1.36-0.132,2.828,0.718,3.962
		c0.201,0.269,0.432,0.508,0.682,0.722c-1.003,1.966-1.58,4.184-1.58,6.538c0,5.622,4.305,10.016,7.024,12.231v9.635
		c0,2.485,2.015,4.5,4.5,4.5h18.286c2.485,0,4.5-2.015,4.5-4.5v-9.636c2.72-2.215,7.022-6.609,7.022-12.23
		c0-1.931-0.388-3.772-1.078-5.458h184.488c-0.69,1.686-1.078,3.527-1.078,5.458c0,5.622,4.305,10.016,7.024,12.231v9.635
		c0,2.485,2.015,4.5,4.5,4.5h18.286c2.485,0,4.5-2.015,4.5-4.5v-9.636c2.719-2.215,7.021-6.609,7.021-12.23
		c0-2.354-0.577-4.572-1.58-6.538C353.932,412.41,354.163,412.17,354.364,411.902z M344.757,9l-1.276,4.363H102.047L100.77,9
		H344.757z M338.445,317.486v60.49H107.083v-60.49H338.445z M107.083,308.486V35.727h111.181v272.759H107.083z M227.264,308.486
		V35.727h111.181v272.759H227.264z M339.571,386.976l1.276,4.364H104.68l1.277-4.364H339.571z M339.571,26.727H105.958l-1.277-4.364
		h236.167L339.571,26.727z M117.664,425.321c-1.3,0.826-2.088,2.259-2.088,3.799v7.407h-9.286v-7.407
		c0-1.541-0.788-2.974-2.088-3.799c-1.668-1.058-4.937-4.047-4.937-6.16c0-3.01,2.45-5.458,5.461-5.458h12.415
		c3.009,0,5.457,2.448,5.457,5.458C122.598,421.189,119.645,424.041,117.664,425.321z M100.77,404.703l1.277-4.364h241.434
		l1.276,4.364H100.77z M341.329,425.321c-1.301,0.826-2.088,2.259-2.088,3.799v7.407h-9.286v-7.407c0-1.541-0.788-2.974-2.088-3.799
		c-1.668-1.058-4.936-4.047-4.936-6.16c0-3.01,2.449-5.458,5.459-5.458h12.415c3.01,0,5.458,2.448,5.458,5.458
		C346.262,421.189,343.31,424.041,341.329,425.321z"/>
	<path style="fill:#7C5F53;" d="M187.86,42.352h-50.372c-13.195,0-23.93,10.735-23.93,23.93v212.268
		c0,13.195,10.734,23.93,23.93,23.93h50.372c13.195,0,23.93-10.735,23.93-23.93V66.282C211.79,53.087,201.055,42.352,187.86,42.352z
		 M202.79,278.551c0,8.232-6.697,14.93-14.93,14.93h-50.372c-8.232,0-14.93-6.698-14.93-14.93V66.282
		c0-8.232,6.697-14.93,14.93-14.93h50.372c8.232,0,14.93,6.698,14.93,14.93V278.551z"/>
	<path style="fill:#7C5F53;" d="M308.04,42.352h-50.371c-13.195,0-23.93,10.735-23.93,23.93v212.268
		c0,13.195,10.734,23.93,23.93,23.93h50.371c13.195,0,23.931-10.735,23.931-23.93V66.282
		C331.97,53.087,321.235,42.352,308.04,42.352z M322.97,278.551c0,8.232-6.698,14.93-14.931,14.93h-50.371
		c-8.232,0-14.93-6.698-14.93-14.93V66.282c0-8.232,6.697-14.93,14.93-14.93h50.371c8.232,0,14.931,6.698,14.931,14.93V278.551z"/>
	<path style="fill:#7C5F53;" d="M180.798,192.761c-6.378,0-11.567,5.189-11.567,11.567c0,6.377,5.189,11.566,11.567,11.566
		c6.379,0,11.568-5.188,11.568-11.566C192.367,197.95,187.177,192.761,180.798,192.761z M180.798,206.894
		c-1.416,0-2.567-1.151-2.567-2.566c0-1.416,1.151-2.567,2.567-2.567s2.568,1.151,2.568,2.567
		C183.367,205.743,182.214,206.894,180.798,206.894z"/>
	<path style="fill:#7C5F53;" d="M264.732,192.761c-6.379,0-11.568,5.189-11.568,11.567c0,6.377,5.189,11.566,11.568,11.566
		c6.378,0,11.566-5.188,11.566-11.566C276.298,197.95,271.11,192.761,264.732,192.761z M264.732,206.894
		c-1.416,0-2.568-1.151-2.568-2.566c0-1.416,1.152-2.567,2.568-2.567c1.415,0,2.566,1.151,2.566,2.567
		C267.298,205.743,266.147,206.894,264.732,206.894z"/>
</g>
</svg>